<svg width="28" height="29" viewBox="0 0 28 29" fill="none" xmlns="http://www.w3.org/2000/svg">
<path d="M20.3304 17.3831C20.2332 17.8825 19.0217 18.955 18.0755 19.1693C16.0402 19.6209 13.1559 18.0258 11.2886 16.3365C9.42134 14.6705 7.55685 11.9783 7.82361 9.9534C7.94448 9.02417 8.93786 7.73881 9.42274 7.57234C9.64086 7.52459 9.95485 7.52458 10.2466 7.52458C10.5856 7.54778 10.8774 7.57234 10.9746 7.76201L12.0653 10.5483C12.1375 10.7626 11.968 11 11.7499 11.2633C11.4359 11.6208 11.3873 11.644 11.0955 12.0261C10.951 12.2157 11.0469 12.4545 11.0955 12.5487C11.4109 13.2869 12.1375 14.1206 12.7919 14.7155C13.4713 15.3118 14.366 15.9545 15.1426 16.2151C15.1913 16.2151 15.4816 16.3338 15.6998 16.2861C15.8929 16.2629 16.0138 16.1196 16.1833 15.9054C16.4973 15.5247 16.6195 15.3814 16.8863 15.0239C17.1044 14.7619 17.3211 14.6664 17.542 14.7851L20.0137 15.9054C20.2082 16.0009 20.2804 16.2383 20.304 16.5726C20.3541 16.8605 20.3791 17.1703 20.3304 17.3831Z" fill="#01D7F1"/>
<path fill-rule="evenodd" clip-rule="evenodd" d="M13.8355 25.7901C11.7756 25.7892 9.7465 25.299 7.92112 24.3615L0.991089 27.4589L2.93061 19.8368C1.66608 17.8341 0.994479 15.525 0.991089 13.1685C0.991089 6.21498 6.73462 0.570036 13.8369 0.570036C20.9128 0.570036 26.6578 6.21498 26.6578 13.1685C26.6564 20.1452 20.9128 25.7901 13.8355 25.7901ZM3.55694 13.1695C3.55694 7.5969 8.16121 3.09541 13.8339 3.09541C15.1811 3.09433 16.5153 3.35426 17.76 3.8603C19.0048 4.36634 20.1357 5.10856 21.088 6.04446C22.0403 6.98036 22.7953 8.09156 23.3097 9.31442C23.8241 10.5373 24.0878 11.8478 24.0858 13.1709C24.0858 18.7435 19.5052 23.2682 13.8339 23.2682C11.6523 23.2783 9.52634 22.5931 7.77498 21.3156L4.64757 23.2682L6.05359 19.7669C4.44048 17.9343 3.55408 15.592 3.55694 13.1695Z" fill="#01D7F1"/>
</svg>
