<svg width="30" height="30" viewBox="0 0 30 30" fill="none" xmlns="http://www.w3.org/2000/svg">
<path d="M21.3687 20.1524C21.2645 20.7252 19.9676 21.9552 18.9547 22.2009C16.7758 22.7189 13.6881 20.8895 11.6891 18.9521C9.6901 17.0412 7.6941 13.9536 7.97966 11.6311C8.10906 10.5654 9.17251 9.0912 9.69159 8.90027C9.9251 8.8455 10.2612 8.8455 10.5736 8.8455C10.9365 8.8721 11.2488 8.90027 11.3529 9.1178L12.5205 12.3135C12.5978 12.5592 12.4164 12.8315 12.1829 13.1335C11.8467 13.5435 11.7947 13.5701 11.4823 14.0083C11.3277 14.2259 11.4303 14.4997 11.4823 14.6077C11.82 15.4544 12.5978 16.4106 13.2984 17.0929C14.0257 17.7768 14.9835 18.5139 15.8149 18.8128C15.867 18.8128 16.1779 18.9489 16.4114 18.8942C16.6181 18.8676 16.7475 18.7032 16.929 18.4575C17.2651 18.0209 17.396 17.8566 17.6816 17.4466C17.9151 17.1461 18.1471 17.0365 18.3836 17.1727L21.0295 18.4575C21.2378 18.5671 21.3151 18.8394 21.3404 19.2228C21.3939 19.553 21.4207 19.9083 21.3687 20.1524Z" fill="#01D7F1"/>
<path d="M1.84112 15.4922C1.84112 8.44588 7.55261 2.73439 14.599 2.73439C21.6453 2.73439 27.3568 8.44671 27.3568 15.4922C27.3568 22.5377 21.6445 28.2501 14.599 28.2501C7.55261 28.2501 1.84112 22.5386 1.84112 15.4922Z" stroke="#01D7F1" stroke-width="2.44444"/>
</svg>
