<svg width="28" height="29" viewBox="0 0 28 29" fill="none" xmlns="http://www.w3.org/2000/svg">
<path d="M20.3304 17.0982C20.2332 17.5977 19.0217 18.6702 18.0755 18.8844C16.0402 19.336 13.1559 17.7409 11.2886 16.0517C9.42134 14.3856 7.55685 11.6935 7.82361 9.66853C7.94448 8.73931 8.93786 7.45395 9.42274 7.28748C9.64086 7.23972 9.95485 7.23972 10.2466 7.23972C10.5856 7.26291 10.8774 7.28748 10.9746 7.47714L12.0653 10.2635C12.1375 10.4777 11.968 10.7151 11.7499 10.9785C11.4359 11.336 11.3873 11.3592 11.0955 11.7412C10.951 11.9309 11.0469 12.1697 11.0955 12.2638C11.4109 13.002 12.1375 13.8357 12.7919 14.4306C13.4713 15.0269 14.366 15.6696 15.1426 15.9302C15.1913 15.9302 15.4816 16.0489 15.6998 16.0012C15.8929 15.978 16.0138 15.8347 16.1833 15.6205C16.4973 15.2398 16.6195 15.0965 16.8863 14.739C17.1044 14.477 17.3211 14.3815 17.542 14.5002L20.0137 15.6205C20.2082 15.716 20.2804 15.9534 20.304 16.2877C20.3541 16.5756 20.3791 16.8854 20.3304 17.0982Z" fill="#01D7F1"/>
<path fill-rule="evenodd" clip-rule="evenodd" d="M13.8355 25.5053C11.7756 25.5043 9.7465 25.0141 7.92112 24.0766L0.991089 27.1741L2.93061 19.5519C1.66608 17.5492 0.994479 15.2402 0.991089 12.8836C0.991089 5.93012 6.73462 0.285168 13.8369 0.285168C20.9128 0.285168 26.6578 5.93012 26.6578 12.8836C26.6564 19.8603 20.9128 25.5053 13.8355 25.5053ZM3.55694 12.8847C3.55694 7.31204 8.16121 2.81054 13.8339 2.81054C15.1811 2.80946 16.5153 3.06939 17.76 3.57543C19.0048 4.08147 20.1357 4.8237 21.088 5.75959C22.0403 6.69549 22.7953 7.80669 23.3097 9.02955C23.8241 10.2524 24.0878 11.5629 24.0858 12.886C24.0858 18.4587 19.5052 22.9833 13.8339 22.9833C11.6523 22.9934 9.52634 22.3082 7.77498 21.0307L4.64757 22.9833L6.05359 19.482C4.44048 17.6494 3.55408 15.3071 3.55694 12.8847Z" fill="#01D7F1"/>
</svg>
