<svg width="44" height="35" viewBox="0 0 44 35" fill="none" xmlns="http://www.w3.org/2000/svg">
<path d="M8.47501 1.49837H42.1536V24.1765L31.3209 33.9012H8.47501V1.49837Z" stroke="#FCF006" stroke-width="1.2757"/>
<path d="M6.30716 0.860516H1.20435V5.45304H2.73519V2.39136H6.30716V0.860516Z" stroke="#FCF006" stroke-width="0.765422"/>
<path d="M6.30716 34.0281H1.20435V29.4356H2.73519V32.4973H6.30716V34.0281Z" stroke="#FCF006" stroke-width="0.765422"/>
<path d="M37.6887 34.0281H42.7915V29.4356H41.2607V32.4973H37.6887V34.0281Z" stroke="#FCF006" stroke-width="0.765422"/>
<path d="M37.6887 0.860516H42.7915V5.45304H41.2607V2.39136H37.6887V0.860516Z" stroke="#FCF006" stroke-width="0.765422"/>
<path fill-rule="evenodd" clip-rule="evenodd" d="M22.3632 11.1957C23.0753 11.1544 23.3024 11.1444 25.1172 11.1228C26.9321 11.1012 27.1593 11.1064 27.8716 11.1301C28.5838 11.1539 29.0711 11.2616 29.4982 11.4212C29.9454 11.5841 30.3524 11.8423 30.6905 12.1785C31.0347 12.5079 31.3018 12.9081 31.4748 13.3519C31.645 13.7751 31.7638 14.2597 31.8051 14.9699C31.8463 15.6832 31.8563 15.9103 31.8779 17.7245C31.8995 19.5394 31.8943 19.7666 31.8706 20.4795C31.8469 21.1905 31.7391 21.6777 31.5789 22.1049C31.4166 22.5527 31.1586 22.9598 30.8229 23.2978C30.4928 23.6419 30.0921 23.9091 29.6488 24.0821C29.2256 24.2523 28.7411 24.3711 28.0308 24.4123C27.3182 24.4536 27.0911 24.4636 25.2762 24.4852C23.4614 24.5068 23.2341 24.5016 22.5213 24.4779C21.8103 24.4542 21.323 24.3464 20.8959 24.1862C20.448 24.0239 20.0409 23.7658 19.7029 23.4301C19.359 23.1005 19.0912 22.6999 18.9181 22.2561C18.7484 21.8329 18.6297 21.3484 18.5884 20.6381C18.5471 19.9248 18.5371 19.6978 18.5155 17.8835C18.4939 16.0686 18.4991 15.8414 18.5229 15.1292C18.5466 14.4169 18.6544 13.9297 18.8139 13.5025C18.9767 13.0548 19.2351 12.6479 19.5712 12.3102C19.9006 11.9664 20.3011 11.6986 20.7446 11.5253C21.1678 11.3557 21.6524 11.2369 22.3626 11.1957L22.3632 11.1957ZM27.8318 12.3334C27.1269 12.3096 26.9154 12.3054 25.1316 12.3266C23.3477 12.3479 23.1364 12.3571 22.4322 12.3976C21.7808 12.4352 21.4286 12.5481 21.1941 12.6426C20.8839 12.7678 20.6627 12.9144 20.4317 13.151C20.2126 13.3693 20.0451 13.6339 19.9415 13.9253C19.8526 14.162 19.7481 14.5168 19.7261 15.1689C19.7023 15.8739 19.6981 16.0853 19.7194 17.8692C19.7406 19.6531 19.7498 19.8643 19.7904 20.5685C19.8279 21.2199 19.9408 21.5721 20.0353 21.8067C20.1457 22.0951 20.3195 22.3561 20.5437 22.5691C20.762 22.7882 21.027 22.9557 21.318 23.0592C21.5548 23.1481 21.9096 23.2526 22.5616 23.2746C23.2666 23.2984 23.4774 23.3026 25.2619 23.2814C27.0464 23.2601 27.2571 23.2509 27.9613 23.2104C28.6126 23.1729 28.9648 23.0599 29.1994 22.9654C29.5095 22.8402 29.7307 22.6936 29.9618 22.457C30.1809 22.2387 30.3485 21.9737 30.4519 21.6827C30.5408 21.446 30.6453 21.0912 30.6673 20.4391C30.6912 19.7342 30.6953 19.5227 30.6741 17.7388C30.6529 15.955 30.6437 15.7437 30.6031 15.0395C30.5656 14.3881 30.4527 14.0359 30.3581 13.8013C30.233 13.4912 30.0863 13.27 29.8497 13.0389C29.6314 12.8199 29.3669 12.6524 29.0754 12.5488C28.8387 12.4599 28.4839 12.3554 27.8318 12.3334ZM24.3679 19.8738C24.8468 20.0665 25.3778 20.087 25.8702 19.9317C26.3625 19.7764 26.7857 19.455 27.0674 19.0223C27.3491 18.5897 27.4719 18.0727 27.4148 17.5596C27.3576 17.0465 27.1241 16.5692 26.7541 16.2091C26.5183 15.9789 26.2343 15.8039 25.9227 15.6967C25.6111 15.5894 25.2795 15.5526 24.952 15.5888C24.6244 15.6251 24.309 15.7335 24.0283 15.9063C23.7477 16.0791 23.5089 16.3119 23.3291 16.5881C23.1492 16.8643 23.0329 17.1769 22.9884 17.5034C22.9438 17.83 22.9723 18.1623 23.0716 18.4766C23.171 18.7908 23.3388 19.0791 23.5629 19.3207C23.787 19.5623 24.062 19.7512 24.3679 19.8738ZM22.7395 15.4046C23.0546 15.0819 23.4302 14.8244 23.8448 14.6469C24.2594 14.4694 24.7049 14.3752 25.1559 14.3699C25.6068 14.3645 26.0545 14.448 26.4732 14.6156C26.8919 14.7833 27.2735 15.0317 27.5961 15.3468C27.9188 15.6619 28.1763 16.0375 28.3538 16.4521C28.5314 16.8667 28.6255 17.3122 28.6309 17.7631C28.6362 18.2141 28.5527 18.6617 28.3851 19.0804C28.2175 19.4992 27.969 19.8807 27.6539 20.2034C27.0176 20.8551 26.1484 21.2273 25.2376 21.2382C24.3268 21.249 23.449 20.8976 22.7973 20.2612C22.1456 19.6248 21.7734 18.7557 21.7626 17.8449C21.7517 16.9341 22.1032 16.0563 22.7395 15.4046ZM29.3577 14.8314C29.4359 14.7559 29.4981 14.6655 29.5407 14.5655C29.5832 14.4656 29.6053 14.3581 29.6056 14.2495C29.6059 14.1408 29.5844 14.0332 29.5423 13.933C29.5003 13.8329 29.4386 13.7421 29.3609 13.6662C29.2831 13.5903 29.191 13.5308 29.0898 13.4911C28.9887 13.4515 28.8806 13.4326 28.772 13.4354C28.6634 13.4383 28.5565 13.4629 28.4575 13.5079C28.3586 13.5528 28.2697 13.6172 28.1961 13.6971C28.053 13.8525 27.976 14.0576 27.9816 14.2688C27.9872 14.48 28.0749 14.6807 28.2261 14.8283C28.3773 14.9759 28.58 15.0588 28.7913 15.0594C29.0026 15.06 29.2058 14.9782 29.3577 14.8314Z" fill="#FCF006"/>
</svg>
