<svg width="193" height="91" viewBox="0 0 193 91" fill="none" xmlns="http://www.w3.org/2000/svg">
<path d="M1 22.4873V4.61789C1 2.61978 2.61979 1 4.61789 1H188.406C190.405 1 192.024 2.61979 192.024 4.61789V75.2172C192.024 76.3184 191.523 77.3595 190.662 78.046L176.659 89.2109C176.018 89.7218 175.223 90 174.404 90H4.61789C2.61978 90 1 88.3802 1 86.3821V78.5265C1 77.5268 1.41362 76.5717 2.1427 75.8878L5.41794 72.8155C6.14702 72.1316 6.56064 71.1765 6.56064 70.1768V31.6739C6.56064 30.8134 6.25391 29.981 5.6955 29.3262L1.86514 24.8349C1.30673 24.1802 1 23.3478 1 22.4873Z" fill="#FCF006" stroke="black" stroke-width="0.723577"/>
</svg>
