<svg width="35" height="26" viewBox="0 0 35 26" fill="none" xmlns="http://www.w3.org/2000/svg">
<path d="M29.8941 3.51195C25.7278 0.300803 21.7365 0.390758 21.7365 0.390758L21.3285 0.870771C26.2814 2.4015 28.5831 4.65226 28.5831 4.65226C21.4971 0.633345 12.4709 0.662102 5.10029 4.65226C5.10029 4.65226 7.48927 2.28132 12.7336 0.750584L12.4422 0.39039C12.4422 0.39039 8.47993 0.300433 4.28464 3.51158C4.28464 3.51158 0.0893555 11.2847 0.0893555 20.8584C0.0893555 20.8584 2.53667 25.18 8.97562 25.3901C8.97562 25.3901 10.0536 24.0695 10.9276 22.9292C7.22728 21.7889 5.82897 19.418 5.82897 19.418C8.15352 20.9163 10.5042 21.8542 13.4332 22.4492C18.199 23.4598 24.1269 22.4208 28.5541 19.418C28.5541 19.418 27.0975 21.849 23.2808 22.9595C24.1548 24.0699 25.2038 25.3603 25.2038 25.3603C31.642 25.1505 34.0894 20.8289 34.0894 20.8588C34.0894 11.2851 29.8941 3.51195 29.8941 3.51195ZM11.6556 18.0679C10.0239 18.0679 8.68393 16.5973 8.68393 14.7664C8.80311 10.3822 14.5381 10.3958 14.6276 14.7664C14.6272 16.5973 13.3162 18.0679 11.6556 18.0679ZM22.2898 18.0679C20.6581 18.0679 19.3182 16.5973 19.3182 14.7664C19.4492 10.3907 25.1125 10.3888 25.2618 14.7664C25.2614 16.5973 23.9504 18.0679 22.2898 18.0679Z" fill="#010914"/>
</svg>
