<svg width="23" height="22" viewBox="0 0 23 22" fill="none" xmlns="http://www.w3.org/2000/svg">
<path d="M14.0853 2.34302V2.42238H14.1647H20.4335V8.69119V8.77054H20.5128H22.0999H22.1792V8.69119V0.755981V0.676629H22.0999H14.1647H14.0853V0.755981V2.34302Z" fill="#DB544C" stroke="#DB544C" stroke-width="0.158704"/>
<path d="M9.09948 2.34302V2.42238H9.02013H2.75131V8.69119V8.77054H2.67196H1.08492H1.00557V8.69119V0.755981V0.676629H1.08492H9.02013H9.09948V0.755981V2.34302Z" fill="#DB544C" stroke="#DB544C" stroke-width="0.158704"/>
<path d="M14.0853 20.1865V20.1072H14.1647H20.4335V13.8384V13.759H20.5128H22.0999H22.1792V13.8384V21.7736V21.8529H22.0999H14.1647H14.0853V21.7736V20.1865Z" fill="#DB544C" stroke="#DB544C" stroke-width="0.158704"/>
<path d="M9.09948 20.1865V20.1072H9.02013H2.75131V13.8384V13.759H2.67196H1.08492H1.00557V13.8384V21.7736V21.8529H1.08492H9.02013H9.09948V21.7736V20.1865Z" fill="#DB544C" stroke="#DB544C" stroke-width="0.158704"/>
</svg>
