<svg width="62" height="50" viewBox="0 0 62 50" fill="none" xmlns="http://www.w3.org/2000/svg">
<path d="M40.6359 19.0487C40.6359 19.1218 40.6069 19.1918 40.5552 19.2435C40.5036 19.2951 40.4335 19.3241 40.3605 19.3241L38.6069 19.3252C37.4499 19.3252 37.2384 19.7758 37.2384 20.6631V22.504H40.2459C40.325 22.504 40.4004 22.5381 40.4525 22.5976C40.5045 22.6571 40.5288 22.7361 40.5191 22.8146L40.0909 26.1286C40.0823 26.195 40.0498 26.256 39.9995 26.3002C39.9493 26.3444 39.8846 26.3687 39.8176 26.3687H37.2384V34.5975C37.2384 34.6706 37.2094 34.7406 37.1577 34.7923C37.1061 34.8439 37.036 34.873 36.963 34.873H33.5413C33.4682 34.873 33.3982 34.8439 33.3465 34.7923C33.2949 34.7406 33.2659 34.6706 33.2659 34.5975V26.3687H30.6784C30.6053 26.3687 30.5353 26.3397 30.4836 26.2881C30.432 26.2364 30.403 26.1664 30.403 26.0933V22.7794C30.403 22.7063 30.432 22.6363 30.4836 22.5846C30.5353 22.533 30.6053 22.504 30.6784 22.504H33.2659V20.3351C33.2659 17.4627 35.0043 15.6786 37.8033 15.6786C39.0066 15.6786 40.0699 15.7681 40.3966 15.8113C40.4628 15.8201 40.5235 15.8526 40.5676 15.9028C40.6116 15.953 40.6359 16.0175 40.6359 16.0843V19.0487Z" fill="#01D7F1"/>
<path d="M11.53 1.91952H60.0804V34.6119L44.4643 48.6309H11.53V1.91952Z" stroke="#01D7F1" stroke-width="1.83903"/>
<path d="M8.40349 1H1.04736V7.62052H3.2542V3.20684H8.40349V1Z" stroke="#01D7F1" stroke-width="1.10342"/>
<path d="M8.40349 48.8146H1.04736V42.1941H3.2542V46.6077H8.40349V48.8146Z" stroke="#01D7F1" stroke-width="1.10342"/>
<path d="M53.6431 48.8146H60.9993V42.1941H58.7924V46.6077H53.6431V48.8146Z" stroke="#01D7F1" stroke-width="1.10342"/>
<path d="M53.6431 1H60.9993V7.62052H58.7924V3.20684H53.6431V1Z" stroke="#01D7F1" stroke-width="1.10342"/>
</svg>
