<svg width="62" height="50" viewBox="0 0 62 50" fill="none" xmlns="http://www.w3.org/2000/svg">
<g clip-path="url(#clip0_0_541)">
<path d="M46.6595 33.3302V25.9942C46.6595 22.0638 44.5616 20.2349 41.7633 20.2349C39.5052 20.2349 38.4939 21.4769 37.9309 22.3483V20.5349H33.6778C33.7339 21.7363 33.6778 33.3302 33.6778 33.3302H37.9309V26.1843C37.9309 25.8029 37.9584 25.4204 38.0708 25.1479C38.378 24.384 39.0773 23.5927 40.2523 23.5927C41.7919 23.5927 42.4076 24.7654 42.4076 26.4855V33.3314L46.6595 33.3302ZM29.1963 18.7885C30.6786 18.7885 31.6026 17.8047 31.6026 16.5771C31.5751 15.3219 30.6786 14.3668 29.2238 14.3668C27.769 14.3668 26.8187 15.3219 26.8187 16.5771C26.8187 17.8059 27.7416 18.7885 29.17 18.7885H29.1963ZM31.3229 33.3302V20.5349H27.0709V33.3302H31.3229Z" fill="#01D7F1"/>
</g>
<path d="M11.4985 1.91952H60.0489V34.6119L44.4328 48.6309H11.4985V1.91952Z" stroke="#01D7F1" stroke-width="1.83903"/>
<path d="M8.372 1H1.01587V7.62052H3.22271V3.20684H8.372V1Z" stroke="#01D7F1" stroke-width="1.10342"/>
<path d="M8.372 48.8146H1.01587V42.1941H3.22271V46.6077H8.372V48.8146Z" stroke="#01D7F1" stroke-width="1.10342"/>
<path d="M53.6121 48.8146H60.9683V42.1941H58.7614V46.6077H53.6121V48.8146Z" stroke="#01D7F1" stroke-width="1.10342"/>
<path d="M53.6121 1H60.9683V7.62052H58.7614V3.20684H53.6121V1Z" stroke="#01D7F1" stroke-width="1.10342"/>
<defs>
<clipPath id="clip0_0_541">
<rect width="38.2519" height="38.2519" fill="white" transform="translate(18.262 6.54883)"/>
</clipPath>
</defs>
</svg>
