<svg width="30" height="31" viewBox="0 0 30 31" fill="none" xmlns="http://www.w3.org/2000/svg">
<path d="M21.3687 20.4373C21.2645 21.01 19.9676 22.2401 18.9547 22.4858C16.7758 23.0038 13.6881 21.1744 11.6891 19.2369C9.6901 17.3261 7.6941 14.2384 7.97966 11.916C8.10906 10.8503 9.17251 9.37607 9.69159 9.18514C9.9251 9.13037 10.2612 9.13037 10.5736 9.13037C10.9365 9.15697 11.2488 9.18514 11.3529 9.40267L12.5205 12.5983C12.5978 12.844 12.4164 13.1163 12.1829 13.4184C11.8467 13.8284 11.7947 13.855 11.4823 14.2932C11.3277 14.5107 11.4303 14.7846 11.4823 14.8926C11.82 15.7392 12.5978 16.6954 13.2984 17.3778C14.0257 18.0616 14.9835 18.7987 15.8149 19.0977C15.867 19.0977 16.1779 19.2338 16.4114 19.179C16.6181 19.1524 16.7475 18.9881 16.929 18.7424C17.2651 18.3058 17.396 18.1415 17.6816 17.7314C17.9151 17.431 18.1471 17.3214 18.3836 17.4576L21.0295 18.7424C21.2378 18.852 21.3151 19.1243 21.3404 19.5077C21.3939 19.8379 21.4207 20.1931 21.3687 20.4373Z" fill="#01D7F1"/>
<path d="M1.84112 15.7771C1.84112 8.73075 7.55261 3.01926 14.599 3.01926C21.6453 3.01926 27.3568 8.73158 27.3568 15.7771C27.3568 22.8226 21.6445 28.535 14.599 28.535C7.55261 28.535 1.84112 22.8235 1.84112 15.7771Z" stroke="#01D7F1" stroke-width="2.44444"/>
</svg>
