<svg width="62" height="50" viewBox="0 0 62 50" fill="none" xmlns="http://www.w3.org/2000/svg">
<path d="M40.636 19.0487C40.636 19.1217 40.607 19.1918 40.5554 19.2434C40.5037 19.2951 40.4337 19.3241 40.3606 19.3241L38.6071 19.3252C37.45 19.3252 37.2385 19.7757 37.2385 20.6631V22.5039H40.246C40.3251 22.5039 40.4005 22.538 40.4526 22.5975C40.5046 22.657 40.5289 22.7361 40.5192 22.8146L40.091 26.1285C40.0824 26.1949 40.0499 26.2559 39.9997 26.3001C39.9494 26.3443 39.8847 26.3687 39.8178 26.3687H37.2385V34.5975C37.2385 34.6705 37.2095 34.7406 37.1579 34.7922C37.1062 34.8439 37.0362 34.8729 36.9631 34.8729H33.5414C33.4684 34.8729 33.3983 34.8439 33.3467 34.7922C33.295 34.7406 33.266 34.6705 33.266 34.5975V26.3687H30.6785C30.6054 26.3687 30.5354 26.3396 30.4837 26.288C30.4321 26.2363 30.4031 26.1663 30.4031 26.0933V22.7793C30.4031 22.7063 30.4321 22.6362 30.4837 22.5846C30.5354 22.5329 30.6054 22.5039 30.6785 22.5039H33.266V20.3351C33.266 17.4626 35.0044 15.6785 37.8034 15.6785C39.0067 15.6785 40.07 15.768 40.3967 15.8113C40.4629 15.82 40.5237 15.8525 40.5677 15.9027C40.6117 15.9529 40.636 16.0174 40.636 16.0842V19.0487Z" fill="#01D7F1"/>
<path d="M11.5299 1.91952H60.0803V34.6119L44.4642 48.6309H11.5299V1.91952Z" stroke="#01D7F1" stroke-width="1.83903"/>
<path d="M8.40349 1H1.04736V7.62052H3.2542V3.20684H8.40349V1Z" stroke="#01D7F1" stroke-width="1.10342"/>
<path d="M8.40349 48.8146H1.04736V42.1941H3.2542V46.6077H8.40349V48.8146Z" stroke="#01D7F1" stroke-width="1.10342"/>
<path d="M53.6431 48.8146H60.9993V42.1941H58.7924V46.6077H53.6431V48.8146Z" stroke="#01D7F1" stroke-width="1.10342"/>
<path d="M53.6431 1H60.9993V7.62052H58.7924V3.20684H53.6431V1Z" stroke="#01D7F1" stroke-width="1.10342"/>
</svg>
