<svg width="62" height="50" viewBox="0 0 62 50" fill="none" xmlns="http://www.w3.org/2000/svg">
<path d="M11.4825 1.91952H60.0329V34.6119L44.4168 48.6309H11.4825V1.91952Z" stroke="#01D7F1" stroke-width="1.83903"/>
<path d="M8.35613 1H1V7.62052H3.20684V3.20684H8.35613V1Z" stroke="#01D7F1" stroke-width="1.10342"/>
<path d="M8.35613 48.8146H1V42.1941H3.20684V46.6077H8.35613V48.8146Z" stroke="#01D7F1" stroke-width="1.10342"/>
<path d="M53.5958 48.8146H60.9519V42.1941H58.7451V46.6077H53.5958V48.8146Z" stroke="#01D7F1" stroke-width="1.10342"/>
<path d="M53.5958 1H60.9519V7.62052H58.7451V3.20684H53.5958V1Z" stroke="#01D7F1" stroke-width="1.10342"/>
<path d="M24.7604 14.5498L32.6369 25.0814L24.7107 33.644H26.4946L33.434 26.1473L39.0408 33.644H45.1114L36.7917 22.5201L44.1694 14.5498H42.3855L35.9947 21.4541L30.831 14.5498H24.7604ZM27.3838 15.8638H30.1726L42.4877 32.3298H39.6988L27.3838 15.8638Z" fill="#01D7F1"/>
</svg>
