<svg width="62" height="50" viewBox="0 0 62 50" fill="none" xmlns="http://www.w3.org/2000/svg">
<path d="M11.5142 1.91952H60.0647V34.6119L44.4485 48.6309H11.5142V1.91952Z" stroke="#DB544C" stroke-width="1.83903"/>
<path d="M8.38787 1H1.03174V7.62052H3.23858V3.20684H8.38787V1Z" stroke="#DB544C" stroke-width="1.10342"/>
<path d="M8.38787 48.8146H1.03174V42.1941H3.23858V46.6077H8.38787V48.8146Z" stroke="#DB544C" stroke-width="1.10342"/>
<path d="M53.6275 48.8146H60.9836V42.1941H58.7768V46.6077H53.6275V48.8146Z" stroke="#DB544C" stroke-width="1.10342"/>
<path d="M53.6275 1H60.9836V7.62052H58.7768V3.20684H53.6275V1Z" stroke="#DB544C" stroke-width="1.10342"/>
<path fill-rule="evenodd" clip-rule="evenodd" d="M31.533 15.8967C32.5595 15.8372 32.8868 15.8228 35.5031 15.7917C38.1193 15.7606 38.447 15.7681 39.4737 15.8023C40.5004 15.8365 41.2029 15.9919 41.8186 16.2218C42.4633 16.4568 43.0501 16.829 43.5375 17.3136C44.0335 17.7884 44.4187 18.3653 44.668 19.0051C44.9135 19.6152 45.0847 20.3137 45.1441 21.3376C45.2037 22.3659 45.2181 22.6932 45.2492 25.3086C45.2803 27.9249 45.2728 28.2525 45.2386 29.2801C45.2044 30.3051 45.049 31.0075 44.8182 31.6233C44.5841 32.2689 44.2122 32.8558 43.7282 33.343C43.2525 33.8391 42.6747 34.2242 42.0358 34.4735C41.4257 34.719 40.7272 34.8902 39.7033 34.9497C38.6759 35.0092 38.3486 35.0236 35.7323 35.0547C33.116 35.0858 32.7884 35.0784 31.7608 35.0442C30.7358 35.01 30.0334 34.8546 29.4176 34.6237C28.772 34.3896 28.1851 34.0177 27.6979 33.5337C27.2022 33.0586 26.8161 32.481 26.5665 31.8413C26.3219 31.2312 26.1507 30.5327 26.0912 29.5088C26.0317 28.4805 26.0173 28.1532 25.9862 25.5378C25.9551 22.9215 25.9625 22.5939 25.9967 21.5672C26.0309 20.5405 26.1863 19.838 26.4163 19.2223C26.651 18.5768 27.0235 17.9902 27.508 17.5034C27.9829 17.0078 28.5602 16.6217 29.1996 16.372C29.8097 16.1274 30.5082 15.9562 31.5321 15.8968L31.533 15.8967ZM39.4164 17.5369C38.4002 17.5025 38.0953 17.4965 35.5237 17.5271C32.9521 17.5577 32.6475 17.571 31.6324 17.6295C30.6934 17.6836 30.1857 17.8464 29.8475 17.9826C29.4004 18.1631 29.0815 18.3744 28.7485 18.7155C28.4326 19.0302 28.1912 19.4116 28.0419 19.8317C27.9137 20.173 27.7631 20.6845 27.7313 21.6245C27.697 22.6407 27.691 22.9456 27.7216 25.5172C27.7522 28.0888 27.7655 28.3934 27.824 29.4085C27.878 30.3475 28.0408 30.8552 28.1771 31.1934C28.3362 31.6092 28.5867 31.9854 28.91 32.2924C29.2246 32.6083 29.6067 32.8499 30.0262 32.999C30.3675 33.1272 30.879 33.2778 31.819 33.3096C32.8352 33.3439 33.1392 33.3499 35.7116 33.3193C38.2841 33.2887 38.5878 33.2754 39.603 33.2169C40.542 33.1629 41.0497 33.0001 41.3879 32.8638C41.835 32.6833 42.1538 32.472 42.4869 32.1309C42.8028 31.8163 43.0443 31.4342 43.1935 31.0147C43.3216 30.6734 43.4723 30.1619 43.504 29.2219C43.5384 28.2057 43.5444 27.9009 43.5138 25.3293C43.4832 22.7576 43.4699 22.4531 43.4114 21.4379C43.3573 20.4989 43.1945 19.9912 43.0583 19.653C42.8778 19.2059 42.6665 18.8871 42.3254 18.554C42.0107 18.2381 41.6293 17.9967 41.2092 17.8474C40.8679 17.7192 40.3564 17.5686 39.4164 17.5369ZM34.4228 28.407C35.1133 28.6848 35.8787 28.7143 36.5885 28.4904C37.2983 28.2666 37.9083 27.8032 38.3144 27.1795C38.7205 26.5559 38.8975 25.8105 38.8151 25.0709C38.7328 24.3312 38.3962 23.6431 37.8628 23.124C37.5228 22.7922 37.1134 22.5399 36.6642 22.3853C36.215 22.2307 35.7371 22.1776 35.2649 22.2298C34.7927 22.2821 34.3379 22.4384 33.9334 22.6875C33.5288 22.9366 33.1845 23.2723 32.9253 23.6704C32.666 24.0685 32.4983 24.5192 32.4341 24.9899C32.37 25.4607 32.411 25.9398 32.5542 26.3928C32.6974 26.8457 32.9393 27.2613 33.2624 27.6096C33.5855 27.9579 33.9818 28.2302 34.4228 28.407ZM32.0754 21.9642C32.5297 21.4991 33.0711 21.1279 33.6687 20.872C34.2664 20.616 34.9087 20.4803 35.5588 20.4726C36.2089 20.4649 36.8542 20.5853 37.4578 20.8269C38.0614 21.0685 38.6115 21.4267 39.0766 21.8809C39.5418 22.3352 39.913 22.8766 40.1689 23.4743C40.4249 24.0719 40.5606 24.7142 40.5683 25.3643C40.576 26.0144 40.4556 26.6597 40.214 27.2633C39.9724 27.8669 39.6142 28.417 39.16 28.8822C38.2426 29.8216 36.9896 30.3582 35.6766 30.3738C34.3636 30.3894 33.0982 29.8828 32.1587 28.9655C31.2193 28.0481 30.6827 26.7951 30.6671 25.4821C30.6514 24.1691 31.158 22.9037 32.0754 21.9642ZM41.6161 21.1379C41.7288 21.0291 41.8184 20.8988 41.8798 20.7547C41.9412 20.6106 41.973 20.4556 41.9734 20.299C41.9739 20.1424 41.9429 19.9873 41.8823 19.8429C41.8217 19.6985 41.7327 19.5677 41.6206 19.4583C41.5086 19.3488 41.3757 19.263 41.2299 19.2059C41.0841 19.1487 40.9283 19.1214 40.7717 19.1256C40.6151 19.1297 40.461 19.1652 40.3184 19.23C40.1758 19.2948 40.0477 19.3875 39.9416 19.5027C39.7352 19.7268 39.6243 20.0224 39.6324 20.3269C39.6404 20.6314 39.7668 20.9207 39.9848 21.1335C40.2027 21.3463 40.495 21.4658 40.7996 21.4666C41.1042 21.4674 41.3971 21.3495 41.6161 21.1379Z" fill="#DB544C"/>
</svg>
