<svg width="43" height="35" viewBox="0 0 43 35" fill="none" xmlns="http://www.w3.org/2000/svg">
<path d="M28.2678 13.381C28.2678 13.4317 28.2477 13.4803 28.2119 13.5161C28.1761 13.5519 28.1275 13.5721 28.0768 13.5721L26.8604 13.5728C26.0578 13.5728 25.9111 13.8854 25.9111 14.5009V15.7778H27.9973C28.0521 15.7778 28.1045 15.8015 28.1406 15.8428C28.1767 15.8841 28.1935 15.9389 28.1868 15.9933L27.8898 18.2922C27.8838 18.3382 27.8613 18.3805 27.8264 18.4112C27.7915 18.4419 27.7467 18.4588 27.7002 18.4588H25.9111V24.1669C25.9111 24.2176 25.8909 24.2662 25.8551 24.302C25.8193 24.3379 25.7707 24.358 25.72 24.358H23.3464C23.2958 24.358 23.2472 24.3379 23.2113 24.302C23.1755 24.2662 23.1554 24.2176 23.1554 24.1669V18.4588H21.3605C21.3098 18.4588 21.2612 18.4386 21.2254 18.4028C21.1896 18.367 21.1694 18.3184 21.1694 18.2677V15.9689C21.1694 15.9182 21.1896 15.8696 21.2254 15.8338C21.2612 15.798 21.3098 15.7778 21.3605 15.7778H23.1554V14.2734C23.1554 12.2808 24.3613 11.0432 26.3029 11.0432C27.1376 11.0432 27.8752 11.1053 28.1018 11.1353C28.1477 11.1414 28.1899 11.1639 28.2204 11.1987C28.251 11.2336 28.2678 11.2783 28.2678 11.3246V13.381Z" fill="#01D7F1"/>
<path d="M8.0773 1.49837H41.7559V24.1765L30.9232 33.9012H8.0773V1.49837Z" stroke="#01D7F1" stroke-width="1.2757"/>
<path d="M5.90945 0.860516H0.806641V5.45304H2.33748V2.39136H5.90945V0.860516Z" stroke="#01D7F1" stroke-width="0.765422"/>
<path d="M5.90945 34.0281H0.806641V29.4356H2.33748V32.4973H5.90945V34.0281Z" stroke="#01D7F1" stroke-width="0.765422"/>
<path d="M37.291 34.0281H42.3938V29.4356H40.863V32.4973H37.291V34.0281Z" stroke="#01D7F1" stroke-width="0.765422"/>
<path d="M37.291 0.860516H42.3938V5.45304H40.863V2.39136H37.291V0.860516Z" stroke="#01D7F1" stroke-width="0.765422"/>
</svg>
