<svg width="21" height="20" viewBox="0 0 21 20" fill="none" xmlns="http://www.w3.org/2000/svg">
<path d="M20.6594 19.3302V11.9942C20.6594 8.06381 18.5615 6.2349 15.7631 6.2349C13.5051 6.2349 12.4938 7.47689 11.9308 8.34831V6.53493H7.67764C7.73382 7.73628 7.67764 19.3302 7.67764 19.3302H11.9308V12.1843C11.9308 11.8029 11.9583 11.4204 12.0706 11.1479C12.3778 10.384 13.0771 9.59269 14.2522 9.59269C15.7918 9.59269 16.4074 10.7654 16.4074 12.4855V19.3314L20.6594 19.3302ZM3.1962 4.7885C4.67846 4.7885 5.60248 3.80471 5.60248 2.57706C5.57498 1.32192 4.67846 0.366821 3.22369 0.366821C1.76892 0.366821 0.818604 1.32192 0.818604 2.57706C0.818604 3.8059 1.74143 4.7885 3.1699 4.7885H3.1962ZM5.32276 19.3302V6.53493H1.07083V19.3302H5.32276Z" fill="#01D7F1"/>
</svg>
