<svg width="19" height="19" viewBox="0 0 19 19" fill="none" xmlns="http://www.w3.org/2000/svg">
<path d="M18.739 18.0947V11.3912C18.739 7.79974 16.822 6.1285 14.2649 6.1285C12.2016 6.1285 11.2775 7.26341 10.763 8.05971V6.40267H6.87656C6.9279 7.50044 6.87656 18.0947 6.87656 18.0947H10.763V11.5649C10.763 11.2165 10.7881 10.8669 10.8908 10.6179C11.1715 9.91991 11.8105 9.1968 12.8843 9.1968C14.2912 9.1968 14.8537 10.2684 14.8537 11.8402V18.0958L18.739 18.0947ZM2.78149 4.80681C4.13595 4.80681 4.98031 3.90784 4.98031 2.78604C4.95518 1.63911 4.13595 0.766357 2.80661 0.766357C1.47727 0.766357 0.608887 1.63911 0.608887 2.78604C0.608887 3.90893 1.45215 4.80681 2.75746 4.80681H2.78149ZM4.72471 18.0947V6.40267H0.839364V18.0947H4.72471Z" fill="#01D7F1"/>
</svg>
