<svg width="46" height="50" viewBox="0 0 46 50" fill="none" xmlns="http://www.w3.org/2000/svg">
<path d="M41.6853 9.39356L27.2415 1.13424C25.9435 0.391207 24.4709 0 22.9719 0C21.4728 0 20.0002 0.391207 18.7023 1.13424L4.26738 9.39356C2.96975 10.1356 1.89221 11.2029 1.14311 12.4884C0.39401 13.7738 -0.000242346 15.232 3.57616e-07 16.7162V33.2334C-0.000433416 34.7175 0.393752 36.1755 1.14289 37.4608C1.89202 38.746 2.96967 39.8131 4.26738 40.5546L18.7023 48.8198C19.9995 49.5617 21.471 49.9523 22.9689 49.9523C24.4668 49.9523 25.9383 49.5617 27.2355 48.8198L41.6793 40.5605C42.9788 39.819 44.058 38.7512 44.8083 37.4649C45.5585 36.1785 45.9532 34.719 45.9526 33.2334V16.7162C45.9526 15.232 45.5582 13.774 44.8091 12.4886C44.0601 11.2032 42.9827 10.1358 41.6853 9.39356ZM22.983 37.3682C21.4342 29.9491 17.3902 23.2701 11.5123 18.4234C15.1895 19.7348 19.0688 20.4035 22.9771 20.3996C26.8833 20.4024 30.7604 19.7337 34.4359 18.4234C28.5618 23.2714 24.522 29.9504 22.9771 37.3682H22.983Z" fill="white"/>
</svg>
