<svg width="43" height="35" viewBox="0 0 43 35" fill="none" xmlns="http://www.w3.org/2000/svg">
<path d="M8.27066 1.49837H41.9492V24.1765L31.1166 33.9012H8.27066V1.49837Z" stroke="#01D7F1" stroke-width="1.2757"/>
<path d="M6.10281 0.860516H1V5.45304H2.53084V2.39136H6.10281V0.860516Z" stroke="#01D7F1" stroke-width="0.765422"/>
<path d="M6.10281 34.0281H1V29.4356H2.53084V32.4973H6.10281V34.0281Z" stroke="#01D7F1" stroke-width="0.765422"/>
<path d="M37.4843 34.0281H42.5872V29.4356H41.0563V32.4973H37.4843V34.0281Z" stroke="#01D7F1" stroke-width="0.765422"/>
<path d="M37.4843 0.860516H42.5872V5.45304H41.0563V2.39136H37.4843V0.860516Z" stroke="#01D7F1" stroke-width="0.765422"/>
<path d="M17.4823 10.26L22.946 17.5656L17.4478 23.5053H18.6852L23.4989 18.305L27.3883 23.5053H31.5993L25.8282 15.7888L30.9459 10.26H29.7085L25.2753 15.0494L21.6933 10.26H17.4823ZM19.302 11.1715H21.2366L29.7793 22.5937H27.8447L19.302 11.1715Z" fill="#01D7F1"/>
</svg>
