<svg width="193" height="91" viewBox="0 0 193 91" fill="none" xmlns="http://www.w3.org/2000/svg">
<path d="M192.024 22.4873V4.61789C192.024 2.61978 190.405 1 188.407 1H4.61792C2.61981 1 1.00003 2.61979 1.00003 4.61789V75.2172C1.00003 76.3184 1.5015 77.3595 2.36244 78.046L16.3652 89.2109C17.0059 89.7218 17.8011 90 18.6206 90H188.407C190.405 90 192.024 88.3802 192.024 86.3821V78.5265C192.024 77.5268 191.611 76.5717 190.882 75.8878L187.606 72.8155C186.877 72.1316 186.464 71.1765 186.464 70.1768V31.6739C186.464 30.8134 186.771 29.981 187.329 29.3262L191.159 24.8349C191.718 24.1802 192.024 23.3478 192.024 22.4873Z" fill="#FCF006" stroke="black" stroke-width="0.723577"/>
</svg>
