<svg width="15" height="14" viewBox="0 0 15 14" fill="none" xmlns="http://www.w3.org/2000/svg">
<path d="M14.3027 13.1743V8.08547C14.3027 5.35904 12.8475 4.09035 10.9063 4.09035C9.33992 4.09035 8.63841 4.95189 8.24786 5.55639V4.29848H5.29754C5.33651 5.13183 5.29754 13.1743 5.29754 13.1743H8.24786V8.21731C8.24786 7.95279 8.26693 7.68745 8.34487 7.49839C8.55798 6.96853 9.04307 6.41959 9.85818 6.41959C10.9262 6.41959 11.3532 7.23304 11.3532 8.42627V13.1751L14.3027 13.1743ZM2.18884 3.08701C3.21706 3.08701 3.85804 2.40457 3.85804 1.55298C3.83896 0.68231 3.21706 0.0197735 2.20791 0.0197735C1.19877 0.0197735 0.539551 0.68231 0.539551 1.55298C0.539551 2.4054 1.1797 3.08701 2.1706 3.08701H2.18884ZM3.664 13.1743V4.29848H0.714513V13.1743H3.664Z" fill="#01D7F1"/>
</svg>
