<svg width="47" height="51" viewBox="0 0 47 51" fill="none" xmlns="http://www.w3.org/2000/svg">
<path d="M41.9709 9.65601L27.5271 1.39669C26.2292 0.653658 24.7566 0.262451 23.2575 0.262451C21.7584 0.262451 20.2858 0.653658 18.9879 1.39669L4.55302 9.65601C3.2554 10.398 2.17786 11.4654 1.42876 12.7508C0.679654 14.0363 0.285402 15.4944 0.285645 16.9787V33.4958C0.285211 34.9799 0.679396 36.438 1.42853 37.7232C2.17766 39.0084 3.25531 40.0755 4.55302 40.817L18.9879 49.0822C20.2851 49.8242 21.7566 50.2148 23.2545 50.2148C24.7524 50.2148 26.224 49.8242 27.5212 49.0822L41.965 40.8229C43.2645 40.0814 44.3437 39.0137 45.0939 37.7273C45.8441 36.441 46.2389 34.9815 46.2383 33.4958V16.9787C46.2382 15.4945 45.8438 14.0364 45.0948 12.7511C44.3457 11.4657 43.2683 10.3982 41.9709 9.65601ZM23.2686 37.6307C21.7199 30.2115 17.6759 23.5325 11.7979 18.6858C15.4752 19.9972 19.3544 20.6659 23.2627 20.6621C27.169 20.6649 31.0461 19.9962 34.7215 18.6858C28.8475 23.5339 24.8076 30.2129 23.2627 37.6307H23.2686Z" fill="white"/>
</svg>
