<svg width="463" height="207" viewBox="0 0 463 207" fill="none" xmlns="http://www.w3.org/2000/svg">
<g filter="url(#filter0_b_15_1004)">
<path d="M400.356 1.96545H459.301C460.544 1.96545 461.551 2.97244 461.551 4.21462V203.265C461.551 204.507 460.544 205.514 459.301 205.514H355.15C354.53 205.514 353.937 205.258 353.512 204.807L346.354 197.201C345.929 196.749 345.337 196.493 344.716 196.493H279.281C278.637 196.493 278.024 196.769 277.597 197.251L270.949 204.757C270.522 205.238 269.909 205.514 269.266 205.514H28.0926C27.4412 205.514 26.8218 205.232 26.3946 204.74L2.14859 176.829C1.79315 176.42 1.59741 175.896 1.59741 175.354V26.7685C1.59741 25.5263 2.60437 24.5194 3.84656 24.5194H367.929C368.405 24.5194 368.868 24.3684 369.253 24.0882L399.032 2.39662C399.417 2.11642 399.881 1.96545 400.356 1.96545Z" fill="url(#paint0_linear_15_1004)" fill-opacity="0.42"/>
<path d="M400.356 1.96545H459.301C460.544 1.96545 461.551 2.97244 461.551 4.21462V203.265C461.551 204.507 460.544 205.514 459.301 205.514H355.15C354.53 205.514 353.937 205.258 353.512 204.807L346.354 197.201C345.929 196.749 345.337 196.493 344.716 196.493H279.281C278.637 196.493 278.024 196.769 277.597 197.251L270.949 204.757C270.522 205.238 269.909 205.514 269.266 205.514H28.0926C27.4412 205.514 26.8218 205.232 26.3946 204.74L2.14859 176.829C1.79315 176.42 1.59741 175.896 1.59741 175.354V26.7685C1.59741 25.5263 2.60437 24.5194 3.84656 24.5194H367.929C368.405 24.5194 368.868 24.3684 369.253 24.0882L399.032 2.39662C399.417 2.11642 399.881 1.96545 400.356 1.96545Z" stroke="#BD4842" stroke-width="2.24916"/>
</g>
<defs>
<filter id="filter0_b_15_1004" x="-38.8874" y="-38.5195" width="540.923" height="284.519" filterUnits="userSpaceOnUse" color-interpolation-filters="sRGB">
<feFlood flood-opacity="0" result="BackgroundImageFix"/>
<feGaussianBlur in="BackgroundImageFix" stdDeviation="19.6801"/>
<feComposite in2="SourceAlpha" operator="in" result="effect1_backgroundBlur_15_1004"/>
<feBlend mode="normal" in="SourceGraphic" in2="effect1_backgroundBlur_15_1004" result="shape"/>
</filter>
<linearGradient id="paint0_linear_15_1004" x1="461.551" y1="122.629" x2="4.59276" y2="123.956" gradientUnits="userSpaceOnUse">
<stop stop-color="#DB544C"/>
<stop offset="1" stop-color="#35131B" stop-opacity="0.47"/>
</linearGradient>
</defs>
</svg>
