<svg width="1461" height="88" viewBox="0 0 1461 88" fill="none" xmlns="http://www.w3.org/2000/svg">
<path fill-rule="evenodd" clip-rule="evenodd" d="M0.847656 48.8017H1460.26V64.1911H1379.41L1372.44 50.4093L1372.43 50.4449L1372.41 50.4093L1360.27 76.2012H1350.45L1344.63 64.369H1133.41V64.3644L1064.29 64.3056L1062.72 61.1321L1065.25 56.0044H1060.19L1062.72 61.1321L1061.13 64.369H1058.21L1051.33 50.4093L1051.32 50.4263L1051.31 50.4093L1033.03 87.498L1023.33 67.8412L897.792 67.7824L895.594 72.2355L889.02 58.8916L884.634 67.7824L828.187 67.8412L822.685 56.6805H797.121L787.499 76.2012H783.692L759.941 75.9892L755.255 85.4974L744.658 63.9698H682.547L680.035 58.8854L684.212 50.4093H675.848L680.035 58.8854L677.528 63.9698H566.854L559.884 50.4093L559.869 50.4449L559.852 50.4093L547.714 76.2012H537.893L532.077 64.369H320.855V64.3319L289.74 64.3056L288.173 61.1321L290.697 56.0044H285.638L288.173 61.1321L286.577 64.369H283.657L276.776 50.4093L276.767 50.4263L276.762 50.4093L258.481 87.498L248.781 67.8412L161.246 67.7824L159.048 72.2355L152.474 58.8916L148.088 67.7824L91.6412 67.8412L86.1394 56.6805H60.5755L50.9533 76.2012H47.1459L23.3946 75.9892L18.7088 85.4974L11.6799 71.2329L8.11197 64.1633H0.847656V48.8017ZM1420.71 58.4212H1424.66V50.4093H1420.71V58.4212ZM1407.54 58.4212H1408.85V50.4093H1407.54V58.4212ZM1398.32 58.4212H1399.64V50.4093H1398.32V58.4212ZM1396.32 58.4212H1397.64V50.4093H1396.32V58.4212ZM783.773 68.4926H785.091V65.8235H783.773V68.4926ZM783.773 63.1498H785.091V60.4807H783.773V63.1498ZM773.561 68.4926H774.88V60.4807H773.561V68.4926ZM768.513 68.4926H769.832V65.8235H768.513V68.4926ZM608.154 58.4212H612.104V50.4093H608.154V58.4212ZM594.979 58.4212H596.295V50.4093H594.979V58.4212ZM585.765 58.4212H587.08V50.4093H585.765V58.4212ZM583.768 58.4212H585.086V50.4093H583.768V58.4212ZM47.2272 68.4926H48.5452V65.8235H47.2272V68.4926ZM47.2272 63.1498H48.5452V60.4807H47.2272V63.1498ZM37.0152 68.4926H38.334V60.4807H37.0152V68.4926ZM31.9673 68.4926H33.2862V65.8235H31.9673V68.4926ZM892.475 78.5469L895.594 72.2355L898.705 78.5469H892.475ZM682.567 64.0116H677.508L677.528 63.9698H682.547L682.567 64.0116ZM155.929 78.5469L159.048 72.2355L162.16 78.5469H155.929Z" fill="#FCF006"/>
<path d="M1.8612 0.498047L1460.26 0.498047V52.0718H1.8611L1.8612 0.498047Z" fill="#FCF006"/>
</svg>
