<svg width="62" height="50" viewBox="0 0 62 50" fill="none" xmlns="http://www.w3.org/2000/svg">
<path d="M11.5142 1.91952H60.0647V34.6119L44.4485 48.6309H11.5142V1.91952Z" stroke="#DB544C" stroke-width="1.83903"/>
<path d="M8.38774 1H1.03162V7.62052H3.23845V3.20684H8.38774V1Z" stroke="#DB544C" stroke-width="1.10342"/>
<path d="M8.38774 48.8146H1.03162V42.1941H3.23845V46.6077H8.38774V48.8146Z" stroke="#DB544C" stroke-width="1.10342"/>
<path d="M53.6274 48.8146H60.9835V42.1941H58.7767V46.6077H53.6274V48.8146Z" stroke="#DB544C" stroke-width="1.10342"/>
<path d="M53.6274 1H60.9835V7.62052H58.7767V3.20684H53.6274V1Z" stroke="#DB544C" stroke-width="1.10342"/>
<path fill-rule="evenodd" clip-rule="evenodd" d="M31.5328 15.8968C32.5593 15.8373 32.8867 15.8229 35.503 15.7918C38.1192 15.7606 38.4468 15.7681 39.4736 15.8023C40.5003 15.8365 41.2027 15.9919 41.8185 16.2219C42.4632 16.4568 43.05 16.829 43.5374 17.3136C44.0334 17.7885 44.4186 18.3654 44.6679 19.0052C44.9134 19.6153 45.0845 20.3138 45.144 21.3377C45.2035 22.3659 45.2179 22.6933 45.2491 25.3087C45.2802 27.9249 45.2727 28.2525 45.2385 29.2802C45.2043 30.3052 45.0489 31.0076 44.818 31.6233C44.584 32.269 44.2121 32.8558 43.7281 33.3431C43.2524 33.8391 42.6746 34.2243 42.0357 34.4736C41.4256 34.7191 40.727 34.8903 39.7032 34.9497C38.6758 35.0092 38.3484 35.0236 35.7322 35.0548C33.1159 35.0859 32.7883 35.0784 31.7607 35.0442C30.7357 35.01 30.0333 34.8546 29.4175 34.6237C28.7719 34.3897 28.185 34.0178 27.6978 33.5338C27.2021 33.0586 26.8159 32.4811 26.5664 31.8414C26.3218 31.2313 26.1506 30.5327 26.0911 29.5089C26.0316 28.4806 26.0172 28.1533 25.9861 25.5379C25.9549 22.9216 25.9624 22.594 25.9966 21.5673C26.0308 20.5405 26.1862 19.8381 26.4162 19.2224C26.6509 18.5769 27.0234 17.9903 27.5079 17.5035C27.9828 17.0079 28.5601 16.6218 29.1995 16.3721C29.8096 16.1275 30.5081 15.9563 31.532 15.8968L31.5328 15.8968ZM39.4163 17.5369C38.4 17.5026 38.0952 17.4966 35.5236 17.5272C32.952 17.5578 32.6474 17.571 31.6323 17.6295C30.6933 17.6836 30.1855 17.8464 29.8474 17.9827C29.4003 18.1631 29.0814 18.3745 28.7483 18.7156C28.4325 19.0303 28.1911 19.4117 28.0418 19.8318C27.9136 20.1731 27.7629 20.6845 27.7312 21.6246C27.6969 22.6408 27.6909 22.9456 27.7215 25.5172C27.7521 28.0888 27.7653 28.3934 27.8238 29.4086C27.8779 30.3476 28.0407 30.8553 28.177 31.1934C28.336 31.6093 28.5866 31.9855 28.9099 32.2925C29.2245 32.6084 29.6066 32.8499 30.0261 32.9991C30.3674 33.1272 30.8788 33.2779 31.8188 33.3096C32.8351 33.3439 33.139 33.35 35.7115 33.3194C38.284 33.2887 38.5877 33.2755 39.6029 33.217C40.5419 33.1629 41.0496 33.0001 41.3877 32.8639C41.8348 32.6834 42.1537 32.4721 42.4868 32.131C42.8027 31.8163 43.0442 31.4343 43.1934 31.0148C43.3215 30.6735 43.4722 30.162 43.5039 29.222C43.5382 28.2057 43.5442 27.9009 43.5136 25.3293C43.483 22.7577 43.4698 22.4531 43.4113 21.438C43.3572 20.499 43.1944 19.9913 43.0582 19.6531C42.8777 19.206 42.6664 18.8871 42.3252 18.554C42.0105 18.2382 41.6292 17.9968 41.2091 17.8475C40.8678 17.7193 40.3563 17.5686 39.4163 17.5369ZM34.4227 28.407C35.1131 28.6849 35.8786 28.7144 36.5884 28.4905C37.2982 28.2666 37.9082 27.8033 38.3143 27.1796C38.7204 26.5559 38.8974 25.8106 38.815 25.0709C38.7327 24.3313 38.396 23.6431 37.8627 23.1241C37.5227 22.7923 37.1133 22.54 36.6641 22.3854C36.2149 22.2307 35.7369 22.1776 35.2647 22.2299C34.7925 22.2822 34.3378 22.4385 33.9332 22.6876C33.5287 22.9366 33.1844 23.2723 32.9252 23.6705C32.6659 24.0686 32.4982 24.5192 32.434 24.99C32.3698 25.4607 32.4108 25.9398 32.5541 26.3928C32.6973 26.8458 32.9392 27.2614 33.2623 27.6097C33.5854 27.958 33.9817 28.2303 34.4227 28.407ZM32.0753 21.9643C32.5295 21.4991 33.0709 21.128 33.6686 20.872C34.2663 20.6161 34.9085 20.4804 35.5587 20.4727C36.2088 20.4649 36.8541 20.5853 37.4577 20.827C38.0613 21.0686 38.6113 21.4268 39.0765 21.881C39.5417 22.3352 39.9129 22.8767 40.1688 23.4743C40.4247 24.072 40.5604 24.7142 40.5682 25.3644C40.5759 26.0145 40.4555 26.6598 40.2139 27.2634C39.9722 27.867 39.6141 28.4171 39.1598 28.8822C38.2425 29.8217 36.9895 30.3583 35.6765 30.3739C34.3635 30.3895 33.0981 29.8829 32.1586 28.9655C31.2191 28.0482 30.6826 26.7952 30.6669 25.4822C30.6513 24.1692 31.1579 22.9038 32.0753 21.9643ZM41.616 21.138C41.7287 21.0291 41.8183 20.8988 41.8797 20.7547C41.9411 20.6106 41.9729 20.4557 41.9733 20.2991C41.9737 20.1425 41.9427 19.9874 41.8821 19.8429C41.8215 19.6985 41.7326 19.5677 41.6205 19.4583C41.5085 19.3489 41.3756 19.2631 41.2298 19.2059C41.084 19.1488 40.9281 19.1215 40.7716 19.1256C40.615 19.1298 40.4609 19.1653 40.3183 19.2301C40.1757 19.2948 40.0476 19.3876 39.9415 19.5028C39.7351 19.7268 39.6242 20.0225 39.6322 20.3269C39.6403 20.6314 39.7667 20.9208 39.9846 21.1336C40.2026 21.3464 40.4949 21.4659 40.7994 21.4667C41.104 21.4675 41.397 21.3496 41.616 21.138Z" fill="#DB544C"/>
</svg>
